M48
; DRILL file {KiCad 9.0.0} date 2025-05-15T06:11:26+0800
; FORMAT={-:-/ absolute / inch / decimal}
; #@! TF.CreationDate,2025-05-15T06:11:26+08:00
; #@! TF.GenerationSoftware,Kicad,Pcbnew,9.0.0
; #@! TF.FileFunction,Plated,1,2,PTH
FMAT,2
INCH
; #@! TA.AperFunction,Plated,PTH,ViaDrill
T1C0.0098
; #@! TA.AperFunction,Plated,PTH,ComponentDrill
T2C0.0098
; #@! TA.AperFunction,Plated,PTH,ViaDrill
T3C0.0100
; #@! TA.AperFunction,Plated,PTH,ViaDrill
T4C0.0118
; #@! TA.AperFunction,Plated,PTH,ViaDrill
T5C0.0157
; #@! TA.AperFunction,Plated,PTH,ComponentDrill
T6C0.0236
; #@! TA.AperFunction,Plated,PTH,ComponentDrill
T7C0.0394
%
G90
G05
T1
X5.1978Y-3.8252
X5.3349Y-3.8254
X5.4353Y-3.7486
X5.451Y-3.9179
X5.503Y-3.814
X5.6387Y-3.7933
T2
X5.3653Y-3.7794
X5.3653Y-3.8335
X5.3653Y-3.8877
X5.4194Y-3.7794
X5.4194Y-3.8335
X5.4194Y-3.8877
X5.4736Y-3.7794
X5.4736Y-3.8335
X5.4736Y-3.8877
T3
X3.4315Y-2.939
X3.5307Y-2.824
X3.5678Y-4.7451
X3.637Y-2.564
X3.6399Y-4.7834
X3.68Y-5.108
X3.698Y-2.9807
X3.698Y-4.167
X3.736Y-2.683
X3.739Y-2.567
X3.7656Y-3.2735
X3.7787Y-3.2345
X3.7917Y-3.3256
X3.815Y-3.3036
X3.8246Y-3.7792
X3.841Y-2.566
X3.8745Y-3.897
X3.8868Y-3.5894
X3.9179Y-3.6191
X3.9186Y-3.651
X3.9338Y-4.7888
X3.9427Y-5.4567
X3.943Y-2.566
X3.9439Y-2.8978
X3.956Y-3.8634
X3.9648Y-3.1575
X3.9704Y-3.0511
X3.9808Y-3.4322
X3.981Y-3.589
X3.9819Y-3.6206
X3.9819Y-3.6521
X4.0051Y-4.5305
X4.0064Y-4.7137
X4.0094Y-5.0216
X4.0117Y-3.5259
X4.012Y-3.6536
X4.012Y-3.557
X4.0134Y-3.6206
X4.018Y-3.994
X4.0205Y-2.8978
X4.022Y-3.89
X4.0277Y-3.3844
X4.0749Y-3.6526
X4.0752Y-3.6206
X4.0754Y-3.4948
X4.0754Y-3.3691
X4.1067Y-3.5244
X4.1083Y-4.9291
X4.1365Y-3.3038
X4.1379Y-3.4288
X4.14Y-2.566
X4.1452Y-4.8287
X4.1533Y-3.5105
X4.1662Y-3.271
X4.1664Y-3.3341
X4.1696Y-3.6536
X4.2012Y-3.3048
X4.2012Y-3.4934
X4.2015Y-3.5255
X4.2026Y-3.619
X4.207Y-3.1969
X4.2224Y-4.7025
X4.2324Y-3.6206
X4.2329Y-3.6517
X4.2637Y-3.6523
X4.2637Y-3.6206
X4.2641Y-3.589
X4.3244Y-3.6181
X4.3266Y-2.7323
X4.3279Y-2.5445
X4.3453Y-4.354
X4.3453Y-4.93
X4.3684Y-2.5461
X4.3687Y-2.7311
X4.369Y-2.924
X4.4051Y-3.7051
X4.549Y-2.782
X4.662Y-4.767
X4.6959Y-4.767
X4.731Y-4.767
X4.7687Y-3.6523
X4.787Y-4.194
X4.7876Y-3.9985
X4.8413Y-5.4528
X5.015Y-2.452
X5.0898Y-3.3827
X5.1546Y-4.2861
X5.164Y-4.135
X5.1677Y-3.6969
X5.232Y-4.343
X5.2566Y-4.3257
X5.276Y-3.964
X5.288Y-4.142
X5.292Y-4.303
X5.306Y-4.3442
X5.3176Y-4.2877
X5.3435Y-3.652
X5.367Y-4.075
X5.384Y-4.311
X5.3991Y-4.8863
X5.427Y-4.504
X5.431Y-4.296
X5.468Y-4.046
X5.5504Y-2.7312
X5.5679Y-4.0935
X5.5798Y-2.8447
X5.6206Y-2.8439
X5.668Y-4.6871
X5.6717Y-2.826
X5.6761Y-2.509
X5.705Y-3.631
X5.739Y-3.9027
X5.811Y-3.43
X5.812Y-3.58
X5.836Y-4.5563
X5.8551Y-4.463
X5.89Y-3.43
X5.891Y-3.58
X5.9Y-4.4126
X5.9146Y-2.7268
X5.916Y-2.77
X5.9163Y-2.8138
X6.0807Y-2.8429
T4
X4.0225Y-4.0977
X4.281Y-2.4724
X4.2842Y-2.664
X4.3089Y-2.8524
X4.5748Y-2.6896
X4.5779Y-2.4908
X4.697Y-2.5647
X4.6977Y-2.7612
X4.7752Y-2.8167
X4.8531Y-3.506
X4.86Y-3.8185
X4.869Y-3.8763
X5.1063Y-3.8209
X5.1082Y-3.9052
X5.2777Y-3.5637
X5.3902Y-3.325
X5.3913Y-3.3581
X5.3921Y-3.39
X5.3921Y-3.4244
X5.4291Y-3.5242
X5.4399Y-3.6273
X5.4608Y-4.148
X5.5339Y-3.5646
X5.5555Y-3.3102
X5.5555Y-3.3425
X5.5555Y-3.3744
X5.5555Y-3.4071
X5.5921Y-2.5992
X5.5964Y-2.325
X5.6337Y-2.5992
X5.6387Y-3.7
X5.6751Y-2.5992
X5.707Y-2.7913
X5.707Y-2.7493
X5.7147Y-4.2228
X5.7188Y-2.5988
X5.7285Y-2.7707
X5.749Y-2.7493
X5.749Y-2.7913
X5.7609Y-2.5984
X5.7988Y-2.5827
X5.8643Y-4.0968
T5
X5.5907Y-2.3866
X5.6289Y-2.4011
X5.8209Y-2.4021
X5.8565Y-2.3854
T7
X3.5427Y-5.4061
X3.5427Y-5.5061
X3.6427Y-5.4061
X3.6427Y-5.5061
X3.7427Y-5.4061
X3.7427Y-5.5061
X3.8427Y-5.4061
X3.8427Y-5.5061
X3.9427Y-5.4061
X3.9427Y-5.5061
X4.0427Y-5.4061
X4.0427Y-5.5061
X4.4413Y-5.4023
X4.4413Y-5.5023
X4.5413Y-5.4023
X4.5413Y-5.5023
X4.6413Y-5.4023
X4.6413Y-5.5023
X4.7413Y-5.4023
X4.7413Y-5.5023
X4.8413Y-5.4023
X4.8413Y-5.5023
X4.9413Y-5.4023
X4.9413Y-5.5023
X5.3427Y-5.4023
X5.3427Y-5.5023
X5.4427Y-5.4023
X5.4427Y-5.5023
X5.5427Y-5.4023
X5.5427Y-5.5023
X5.6427Y-5.4023
X5.6427Y-5.5023
X5.7427Y-5.4023
X5.7427Y-5.5023
X5.8427Y-5.4023
X5.8427Y-5.5023
T6
G00X5.5543Y-2.1126
M15
G01X5.5543Y-2.1362
M16
G05
G00X5.5543Y-2.2673
M15
G01X5.5543Y-2.3106
M16
G05
G00X5.8944Y-2.1126
M15
G01X5.8944Y-2.1362
M16
G05
G00X5.8944Y-2.2673
M15
G01X5.8944Y-2.3106
M16
G05
M30
