%TF.GenerationSoftware,KiCad,Pcbnew,9.0.0*%
%TF.CreationDate,2025-05-29T01:16:52+08:00*%
%TF.ProjectId,greybadge_pcb,67726579-6261-4646-9765-5f7063622e6b,rev?*%
%TF.SameCoordinates,Original*%
%TF.FileFunction,Soldermask,Top*%
%TF.FilePolarity,Negative*%
%FSLAX46Y46*%
G04 Gerber Fmt 4.6, Leading zero omitted, Abs format (unit mm)*
G04 Created by KiCad (PCBNEW 9.0.0) date 2025-05-29 01:16:52*
%MOMM*%
%LPD*%
G01*
G04 APERTURE LIST*
G04 Aperture macros list*
%AMRoundRect*
0 Rectangle with rounded corners*
0 $1 Rounding radius*
0 $2 $3 $4 $5 $6 $7 $8 $9 X,Y pos of 4 corners*
0 Add a 4 corners polygon primitive as box body*
4,1,4,$2,$3,$4,$5,$6,$7,$8,$9,$2,$3,0*
0 Add four circle primitives for the rounded corners*
1,1,$1+$1,$2,$3*
1,1,$1+$1,$4,$5*
1,1,$1+$1,$6,$7*
1,1,$1+$1,$8,$9*
0 Add four rect primitives between the rounded corners*
20,1,$1+$1,$2,$3,$4,$5,0*
20,1,$1+$1,$4,$5,$6,$7,0*
20,1,$1+$1,$6,$7,$8,$9,0*
20,1,$1+$1,$8,$9,$2,$3,0*%
G04 Aperture macros list end*
%ADD10C,0.100000*%
%ADD11C,0.150000*%
%ADD12RoundRect,0.140000X0.140000X0.170000X-0.140000X0.170000X-0.140000X-0.170000X0.140000X-0.170000X0*%
%ADD13RoundRect,0.237500X-0.287500X-0.237500X0.287500X-0.237500X0.287500X0.237500X-0.287500X0.237500X0*%
%ADD14R,0.750000X1.000000*%
%ADD15RoundRect,0.140000X-0.170000X0.140000X-0.170000X-0.140000X0.170000X-0.140000X0.170000X0.140000X0*%
%ADD16R,1.000000X0.750000*%
%ADD17R,1.700000X1.700000*%
%ADD18O,1.700000X1.700000*%
%ADD19C,0.650000*%
%ADD20O,1.000000X1.600000*%
%ADD21O,1.000000X2.100000*%
%ADD22C,0.900000*%
G04 APERTURE END LIST*
D10*
X134075081Y-137184843D02*
X131288362Y-137231364D01*
X134092202Y-137188435D02*
X133682512Y-136886540D01*
X133715202Y-137524543D02*
X134103646Y-137187227D01*
D11*
X101830436Y-133667160D02*
X101878055Y-133619541D01*
X101878055Y-133619541D02*
X101973293Y-133571922D01*
X101973293Y-133571922D02*
X102068531Y-133571922D01*
X102068531Y-133571922D02*
X102163769Y-133619541D01*
X102163769Y-133619541D02*
X102211388Y-133667160D01*
X102211388Y-133667160D02*
X102259007Y-133762398D01*
X102259007Y-133762398D02*
X102259007Y-133857636D01*
X102259007Y-133857636D02*
X102211388Y-133952874D01*
X102211388Y-133952874D02*
X102163769Y-134000493D01*
X102163769Y-134000493D02*
X102068531Y-134048112D01*
X102068531Y-134048112D02*
X101973293Y-134048112D01*
X101973293Y-134048112D02*
X101878055Y-134000493D01*
X101878055Y-134000493D02*
X101830436Y-133952874D01*
X101830436Y-133571922D02*
X101830436Y-133952874D01*
X101830436Y-133952874D02*
X101782817Y-134000493D01*
X101782817Y-134000493D02*
X101735198Y-134000493D01*
X101735198Y-134000493D02*
X101639959Y-133952874D01*
X101639959Y-133952874D02*
X101592340Y-133857636D01*
X101592340Y-133857636D02*
X101592340Y-133619541D01*
X101592340Y-133619541D02*
X101687579Y-133476684D01*
X101687579Y-133476684D02*
X101830436Y-133381446D01*
X101830436Y-133381446D02*
X102020912Y-133333827D01*
X102020912Y-133333827D02*
X102211388Y-133381446D01*
X102211388Y-133381446D02*
X102354245Y-133476684D01*
X102354245Y-133476684D02*
X102449483Y-133619541D01*
X102449483Y-133619541D02*
X102497102Y-133810017D01*
X102497102Y-133810017D02*
X102449483Y-134000493D01*
X102449483Y-134000493D02*
X102354245Y-134143351D01*
X102354245Y-134143351D02*
X102211388Y-134238589D01*
X102211388Y-134238589D02*
X102020912Y-134286208D01*
X102020912Y-134286208D02*
X101830436Y-134238589D01*
X101830436Y-134238589D02*
X101687579Y-134143351D01*
X101401865Y-134238589D02*
X100639960Y-134238589D01*
X100544721Y-133476684D02*
X100163769Y-133476684D01*
X100401864Y-134143351D02*
X100401864Y-133286208D01*
X100401864Y-133286208D02*
X100354245Y-133190970D01*
X100354245Y-133190970D02*
X100259007Y-133143351D01*
X100259007Y-133143351D02*
X100163769Y-133143351D01*
X99306626Y-134143351D02*
X99878054Y-134143351D01*
X99592340Y-134143351D02*
X99592340Y-133143351D01*
X99592340Y-133143351D02*
X99687578Y-133286208D01*
X99687578Y-133286208D02*
X99782816Y-133381446D01*
X99782816Y-133381446D02*
X99878054Y-133429065D01*
X98878054Y-133476684D02*
X98878054Y-134143351D01*
X98878054Y-133571922D02*
X98830435Y-133524303D01*
X98830435Y-133524303D02*
X98735197Y-133476684D01*
X98735197Y-133476684D02*
X98592340Y-133476684D01*
X98592340Y-133476684D02*
X98497102Y-133524303D01*
X98497102Y-133524303D02*
X98449483Y-133619541D01*
X98449483Y-133619541D02*
X98449483Y-134143351D01*
X97544721Y-133476684D02*
X97544721Y-134143351D01*
X97782816Y-133095732D02*
X98020911Y-133810017D01*
X98020911Y-133810017D02*
X97401864Y-133810017D01*
X96878054Y-134143351D02*
X96973292Y-134095732D01*
X96973292Y-134095732D02*
X97020911Y-134000493D01*
X97020911Y-134000493D02*
X97020911Y-133143351D01*
X96020911Y-133143351D02*
X96497101Y-133143351D01*
X96497101Y-133143351D02*
X96544720Y-133619541D01*
X96544720Y-133619541D02*
X96497101Y-133571922D01*
X96497101Y-133571922D02*
X96401863Y-133524303D01*
X96401863Y-133524303D02*
X96163768Y-133524303D01*
X96163768Y-133524303D02*
X96068530Y-133571922D01*
X96068530Y-133571922D02*
X96020911Y-133619541D01*
X96020911Y-133619541D02*
X95973292Y-133714779D01*
X95973292Y-133714779D02*
X95973292Y-133952874D01*
X95973292Y-133952874D02*
X96020911Y-134048112D01*
X96020911Y-134048112D02*
X96068530Y-134095732D01*
X96068530Y-134095732D02*
X96163768Y-134143351D01*
X96163768Y-134143351D02*
X96401863Y-134143351D01*
X96401863Y-134143351D02*
X96497101Y-134095732D01*
X96497101Y-134095732D02*
X96544720Y-134048112D01*
D12*
%TO.C,C6*%
X104700000Y-88460000D03*
X103740000Y-88460000D03*
%TD*%
D13*
%TO.C,D7*%
X122642457Y-126857305D03*
X124392457Y-126857305D03*
%TD*%
D12*
%TO.C,C9*%
X102300000Y-86625000D03*
X101340000Y-86625000D03*
%TD*%
D14*
%TO.C,SW5*%
X97998499Y-123714415D03*
X97998499Y-117714415D03*
X101748499Y-123714415D03*
X101748499Y-117714415D03*
%TD*%
D13*
%TO.C,D3*%
X94133119Y-112005806D03*
X95883119Y-112005806D03*
%TD*%
D14*
%TO.C,SW1*%
X97998499Y-116119285D03*
X97998499Y-110119285D03*
X101748499Y-116119285D03*
X101748499Y-110119285D03*
%TD*%
D13*
%TO.C,D5*%
X102171899Y-102443298D03*
X103921899Y-102443298D03*
%TD*%
D14*
%TO.C,SW7*%
X97998499Y-131607886D03*
X97998499Y-125607886D03*
X101748499Y-131607886D03*
X101748499Y-125607886D03*
%TD*%
D15*
%TO.C,C10*%
X102650000Y-89595000D03*
X102650000Y-90555000D03*
%TD*%
%TO.C,C7*%
X103530000Y-86290000D03*
X103530000Y-87250000D03*
%TD*%
D13*
%TO.C,D2*%
X111860672Y-111430837D03*
X113610672Y-111430837D03*
%TD*%
D14*
%TO.C,SW4*%
X94380511Y-117714415D03*
X94380511Y-123714415D03*
X90630511Y-117714415D03*
X90630511Y-123714415D03*
%TD*%
D16*
%TO.C,SW6*%
X149019170Y-122801321D03*
X143019170Y-122801321D03*
X149019170Y-119051321D03*
X143019170Y-119051321D03*
%TD*%
D13*
%TO.C,D6*%
X119258956Y-118277145D03*
X121008956Y-118277145D03*
%TD*%
D14*
%TO.C,SW3*%
X109037471Y-117714415D03*
X109037471Y-123714415D03*
X105287471Y-117714415D03*
X105287471Y-123714415D03*
%TD*%
D13*
%TO.C,D4*%
X119275139Y-119916355D03*
X121025139Y-119916355D03*
%TD*%
D12*
%TO.C,C15*%
X107434610Y-87323175D03*
X106474610Y-87323175D03*
%TD*%
D13*
%TO.C,D1*%
X93422298Y-128489155D03*
X95172298Y-128489155D03*
%TD*%
D16*
%TO.C,SW2*%
X132058502Y-121370429D03*
X138058502Y-121370429D03*
X132058502Y-125120429D03*
X138058502Y-125120429D03*
%TD*%
D13*
%TO.C,D8*%
X112934701Y-126665832D03*
X114684701Y-126665832D03*
%TD*%
D17*
%TO.C,J3*%
X148404880Y-137217248D03*
D18*
X148404880Y-139757248D03*
X145864880Y-137217248D03*
X145864880Y-139757248D03*
X143324880Y-137217248D03*
X143324880Y-139757248D03*
X140784880Y-137217248D03*
X140784880Y-139757248D03*
X138244880Y-137217248D03*
X138244880Y-139757248D03*
X135704880Y-137217248D03*
X135704880Y-139757248D03*
%TD*%
D19*
%TO.C,J5*%
X142509000Y-57609667D03*
X148289000Y-57609667D03*
D20*
X141079000Y-53959667D03*
D21*
X141079000Y-58139668D03*
D20*
X149719000Y-53959667D03*
D21*
X149719000Y-58139668D03*
%TD*%
D17*
%TO.C,J2*%
X125509699Y-137217248D03*
D18*
X125509699Y-139757248D03*
X122969699Y-137217248D03*
X122969699Y-139757248D03*
X120429699Y-137217248D03*
X120429699Y-139757248D03*
X117889699Y-137217248D03*
X117889699Y-139757248D03*
X115349699Y-137217248D03*
X115349699Y-139757248D03*
X112809699Y-137217248D03*
X112809699Y-139757248D03*
%TD*%
D22*
%TO.C,SW8*%
X132900000Y-54145000D03*
X135900000Y-54145000D03*
%TD*%
D17*
%TO.C,J1*%
X102685743Y-137313977D03*
D18*
X102685743Y-139853977D03*
X100145743Y-137313977D03*
X100145743Y-139853977D03*
X97605743Y-137313977D03*
X97605743Y-139853977D03*
X95065743Y-137313977D03*
X95065743Y-139853977D03*
X92525743Y-137313977D03*
X92525743Y-139853977D03*
X89985743Y-137313977D03*
X89985743Y-139853977D03*
%TD*%
M02*
